<svg xmlns="http://www.w3.org/2000/svg" viewbox="0 0 96 96">
        <circle cx="48" cy="48" r="48" fill="blue"/>
        <circle cx="48" cy="48" r="44" fill="white"/>
        <polyline transform="translate(20,10) scale(-1,1)" points="0,0 20,0 20,4 4,4 4,18 16,18 16,22 4,22 4,36 20,36 20,40 0,40" fill="blue"/>
        <polyline transform="translate(40,10)" points="0,0 20,0 20,4 4,4 4,18 16,18 16,22 4,22 4,36 20,36 20,40 0,40" fill="blue"/>
        <polyline points="0,0 60,0 60,4 32,4 32,60 28,60 28,4 0,4" fill="blue"/>
</svg>

